<?xml version="1.0" encoding="utf-8"?>
<!-- Generator: Adobe Illustrator 27.5.0, SVG Export Plug-In . SVG Version: 6.00 Build 0)  -->
<svg version="1.1" id="Livello_1" xmlns="http://www.w3.org/2000/svg" xmlns:xlink="http://www.w3.org/1999/xlink" x="0px" y="0px"
	 viewBox="0 0 1600 378.6" style="enable-background:new 0 0 1600 378.6;" xml:space="preserve">
<style type="text/css">
	.st0{fill:#524532;}
	.st1{fill:#9E8363;}
</style>
<g>
	<path class="st0" d="M224.4,375.4c0.7-1.5,1.5-2.8,2.4-4.1c5.7-7.8,9.8-15.9,10-25.6c0-4.8,0.9-9.8,1.5-14.6
		c0.7-5.4,1.5-21.7,2.2-27.1c0.7-5.6,1.3-11.1,2-16.7c0.2-2.2,0.9-4.3,0.9-6.5c0-5.9-0.4-11.7-0.2-17.6c0-5.4-1.9-10.6-4.6-14.3
		c-3.5-4.6-8.3-8.7-14.8-9.5c-8.9-1.1-14.6-2.4-23.5-3.3c-2.6-0.2-5.2,0.6-7.6,0c-8.9-1.3-17.2,1.9-25.9,2.8
		c-18.3,2-19.6-8.7-20.9-23.9c-0.6-8.9-0.4-13.3,5-25c5.2-11.3,14.3-8.7,24.1-9.5c6.5-0.6,13.2-1.1,19.6-1.9
		c4.6-0.4,9.3-0.9,13.9-1.3c5.4-0.4,9.3-2.6,14.3-3.7c4.6-1.1,8.5-3.5,11.9-6.1c3.2-2.6,6.1-5.6,7-10c3.2-16.9,8.9-33,11.3-49.9v1.7
		c2.6-16.1,4.3-14.5,3.7-30.8c0,3.3,0.2,6.9,0.4,10.2c2-16.1,2-27.6-0.7-40.6c-1.9-8.7-5-13.3-13.5-16.5c-7.2-2.6-12.4-1.7-17.4,4.3
		c-5,5.9-6.1,12-5.7,19.8c0.6,19.6,0.6,39.3-1.7,58.9c-1.1,10.4-4.4,21.3-16.7,22.2c-0.7,0-1.5,0.4-2,0.4c-5.9,0.9-11.7,2.2-17.6,3
		c-17.6,2.2-31.3-3.7-32.6-21.9c-1.1-15.8-1.1-9.8,1.5-23.4c1.9-10.2,10.2-12,17.6-18.5c4.1-3.5,7.6-7.4,9.8-12.2
		c7.4-15.6,2.6-25.9-0.9-41.1c-0.7-3-2.4-5.7-4.3-8.2c-4.3-5.4-9.8-9.3-15.8-12.4c-1.3-0.6-2.8-0.9-4.1-1.1
		c-4.6-0.7-8.9-1.7-13.9-0.6c-0.6,0-1.7,0-2.6,0.6C128.7,4.9,117,7,113.7,14.9c-2.8,6.5-7.4,17.6-9.1,24.5
		c-5.6,22.1,20.6,36,16.1,58.4c-1.7,8-0.7,8.5-4.1,16.3c-2.4,5.4-8.3,10.4-13.2,13.9c-8.9,6.7-19.8,10.6-30.2,8
		c-5.2-1.3-12.8-3.3-17.2-5.4c-7-3.2-13-5.2-14.6-13.2c-0.4-2-1.7-12.4-2.4-14.5c-0.9-2.6-0.7-4.4-0.7-7.2c0-2.6-1.3-5.4-0.6-8
		c-1.9-13.3,0.9-27.8,0.6-41.1C38.1,39,38.5,29.9,37,22.5c-1.3-6.9-3.7-13.2-6.9-19.3c-0.7-1.5-7-2.8-8.5-3.2
		c-1.9-0.6-6.7,1.1-8,2.6C9.6,7.3,11.2,7,9.7,12.9C5.8,27.2,3.4,45.7,1.6,60.5c-4.1,30.4,0.6,36.9,4.6,66.9v-1.9v3
		c0.4,8.7,4.4,16.1,9.3,23c4.8,7.2,12.4,11.3,20.2,14.5c14.1,5.9,27.1,5.2,41.9,8.9c3.7,0.9,14.3,3,18,3.9c9.8,2.8,19.6,7,18.5,19.8
		c-0.6,6.9,0.6,1.5,0.6,8.3c0,5.9-1.1,9.8-1.5,15.9c-0.6,11.1-4.6,18.7-15.9,17.6c-30.2-2.6-48.2-3.7-65.8,0
		c-5.4,1.1-8.9,15.2-10.4,20.8c-1.5,4.8-2,10-2.4,15c-0.4,5.7,0,11.5,0,17.4c0,0.7,0,1.5-0.4,2.2c0,5.7-0.6,11.5-0.4,17.2
		c0,4.8,0.7,6.1,1.3,10.9c0.7,10,1.5,20,2.4,30c0,1.7,0.7,3.2,1.3,4.8c1.1,3.3,3.3,5.7,6.5,7c3.7,1.5,6.9,1.1,8-2.8
		c1.3-5,2.6-9.8,3.3-14.8c1.3-7.4,1.9-14.8,3.2-22.1c1.3-8.3,3-12.8,2.2-21.3c-0.9-10-1.3-24.1,9.1-29.5c7-3.5,30.8-4.3,38.6-3.2
		c5.9,0.7,12,0.2,18,0.7c5.4,0.4,46.7,3.7,51.2,3c9.5-1.3,24.3-1.1,33.2,2.4c11.7,4.6,7.4,22.4,9.1,32.8c0.6,3,1.5,16.9,1.7,19.8
		l0,0c0.7,7.2,1.1,14.6,2,22.1c0.9,6.9,2.4,13.5,3.5,20.2c0.4,3,2,4.4,4.8,5.2"/>
	<g>
		<path class="st1" d="M1011.4,93.6L1011.4,93.6L1011.4,93.6c-28,0-53.3,11.2-72,29.2v-21c0-2.6-2.1-4.7-4.7-4.7h-22.4
			c-2.6,0-4.7,2.1-4.7,4.7v95.5v95.5c0,2.6,2.1,4.7,4.7,4.7h22.4c2.6,0,4.7-2.1,4.7-4.7v-95.5V196c0.7-39.1,32.7-70.7,72-70.7
			c3.1,0,6.2,0.3,9.3,0.7V94C1017.6,93.8,1014.6,93.6,1011.4,93.6z"/>
		<path class="st1" d="M1260.9,196.8c-0.3-57-46.6-103.2-103.7-103.2h0h0c-57,0-103.4,46.3-103.7,103.2c0-0.2,0-0.3,0-0.5v0.7v0.2
			v0.2h0.1c0.6,56.6,46.8,102.5,103.6,102.5h0h0c27.9,0,53.3-11.2,72-29.2v22c0,2.6,2.1,4.7,4.7,4.7h22.4c2.6,0,4.7-2.1,4.7-4.7
			v-95.5v-0.9C1260.9,196.5,1260.9,196.6,1260.9,196.8z M1157.3,268.3c-39.3,0-71.4-31.7-72-70.8l0-0.2h0v-0.9l0,0.5l0-0.7
			c0.6-39.2,32.7-70.8,72-70.8s71.4,31.7,72,70.8l0,0.7l0-0.5v0.9v0.3C1228.5,236.7,1196.5,268.3,1157.3,268.3z"/>
		<path class="st1" d="M1595.3,96.7h-22.5c-2.6,0-4.7,2.1-4.7,4.7v191.4c0,2.6,2.1,4.7,4.7,4.7h22.5c2.6,0,4.7-2.1,4.7-4.7V101.4
			C1600,98.8,1597.9,96.7,1595.3,96.7"/>
		<path class="st1" d="M1425.4,197.1l77.1-92.7c1.2-1.4,1.4-3.3,0.6-5c-0.8-1.7-2.4-2.7-4.2-2.7h-27.9c-1.4,0-2.7,0.6-3.6,1.7
			l-62.1,74.6l-62.1-74.6c-0.9-1.1-2.2-1.7-3.6-1.7h-27.9c-1.8,0-3.4,1-4.2,2.7c-0.8,1.7-0.5,3.6,0.6,5l77.1,92.7l-77.1,92.7
			c-1.2,1.4-1.4,3.3-0.6,5c0.8,1.7,2.4,2.7,4.2,2.7h27.9c1.4,0,2.7-0.6,3.6-1.7l62.1-74.6l62.1,74.6c0.9,1.1,2.2,1.7,3.6,1.7h27.9
			c1.8,0,3.4-1,4.2-2.7c0.8-1.7,0.5-3.6-0.6-5L1425.4,197.1z"/>
		<path class="st1" d="M487.2,93.6L487.2,93.6l-0.3,0h0h0h-0.3v0c-57,0.2-103.4,46.6-103.4,103.7v95.5c0,2.6,2.1,4.7,4.7,4.7h22.4
			c2.6,0,4.7-2.1,4.7-4.7v-95.5l0-1.2c0.6-39.1,32.7-70.8,72-70.8h0.1c39.3,0,71.3,31.7,72,70.8l0,1.2v95.5c0,2.6,2.1,4.7,4.7,4.7
			h22.4c2.6,0,4.7-2.1,4.7-4.7v-95.5C590.5,140.2,544.2,93.8,487.2,93.6z"/>
		<path class="st1" d="M742.1,300L742.1,300l0.3,0h0h0h0.3v0c57-0.2,103.4-46.6,103.4-103.7v-95.5c0-2.6-2.1-4.7-4.7-4.7h-22.4
			c-2.6,0-4.7,2.1-4.7,4.7v95.5l0,1.2c-0.6,39.1-32.7,70.8-72,70.8h-0.1c-39.3,0-71.3-31.7-72-70.8l0-1.2v-95.5
			c0-2.6-2.1-4.7-4.7-4.7h-22.4c-2.6,0-4.7,2.1-4.7,4.7v95.5C638.8,253.4,685.1,299.8,742.1,300z"/>
	</g>
</g>
<g>
	<defs>
		<rect id="SVGID_1_" x="-1126.4" y="-267" width="3000" height="710.7"/>
	</defs>
	<clipPath id="SVGID_00000134928707152686162890000005341953600247268018_">
		<use xlink:href="#SVGID_1_"  style="overflow:visible;"/>
	</clipPath>
</g>
</svg>
